<svg xmlns="http://www.w3.org/2000/svg" xmlns:xlink="http://www.w3.org/1999/xlink" width="944" zoomAndPan="magnify" viewBox="0 0 708.75 567.000005" height="755" preserveAspectRatio="xMidYMid meet" version="1.0"><defs><filter x="0%" y="0%" width="100%" height="100%" id="b5e490cdb6"><feColorMatrix values="0 0 0 0 1 0 0 0 0 1 0 0 0 0 1 0 0 0 1 0" color-interpolation-filters="sRGB"/></filter><mask id="49d8cccffd"><g filter="url(#b5e490cdb6)"><rect x="-70.875" width="850.5" fill="#000000" y="-56.700001" height="680.400006" fill-opacity="0.6"/></g></mask><clipPath id="9c431d22eb"><path d="M 0.929688 0.839844 L 233.851562 0.839844 L 233.851562 227.019531 L 0.929688 227.019531 Z M 0.929688 0.839844 " clip-rule="nonzero"/></clipPath><clipPath id="6a2e199158"><rect x="0" width="235" y="0" height="228"/></clipPath><mask id="56c739abe3"><g filter="url(#b5e490cdb6)"><rect x="-70.875" width="850.5" fill="#000000" y="-56.700001" height="680.400006" fill-opacity="0.4667"/></g></mask><clipPath id="031e5213fa"><path d="M 3.796875 0.621094 L 192 0.621094 L 192 161 L 3.796875 161 Z M 3.796875 0.621094 " clip-rule="nonzero"/></clipPath><clipPath id="4cf6dba294"><path d="M 131 53 L 286.898438 53 L 286.898438 181 L 131 181 Z M 131 53 " clip-rule="nonzero"/></clipPath><clipPath id="e5e52bc6a3"><rect x="0" width="290" y="0" height="182"/></clipPath></defs><g mask="url(#49d8cccffd)"><g transform="matrix(1, 0, 0, 1, 237, 169)"><g clip-path="url(#6a2e199158)"><g clip-path="url(#9c431d22eb)"><path fill="#ffffff" d="M 210.898438 0.839844 L 110.628906 0.839844 C 96.753906 4.5 88.285156 12.890625 87.339844 28.125 C 87.433594 31.058594 87.527344 33.992188 87.625 36.894531 C 87.625 42.257812 87.589844 47.242188 87.625 52.257812 C 87.625 59.988281 87.558594 67.746094 87.589844 75.476562 L 23.820312 75.476562 C 22.464844 75.757812 21.128906 76.136719 19.824219 76.605469 C 18.519531 77.074219 17.25 77.628906 16.019531 78.273438 C 14.792969 78.917969 13.613281 79.644531 12.484375 80.449219 C 11.359375 81.257812 10.292969 82.140625 9.285156 83.09375 C 8.28125 84.050781 7.34375 85.070312 6.480469 86.15625 C 5.617188 87.238281 4.832031 88.378906 4.128906 89.570312 C 3.421875 90.765625 2.804688 92 2.269531 93.28125 C 1.738281 94.558594 1.292969 95.871094 0.941406 97.210938 L 0.941406 162.445312 C 1.316406 165.839844 2.445312 168.964844 4.324219 171.816406 C 5.667969 173.675781 7.246094 175.304688 9.066406 176.707031 C 10.882812 178.109375 12.863281 179.222656 15.003906 180.050781 C 19.199219 182.058594 23.625 183.078125 28.277344 183.109375 L 35.578125 183.109375 L 35.578125 203.867188 C 35.765625 211.5625 35.988281 219.292969 36.175781 227.019531 C 39.90625 223.488281 43.097656 220.394531 45.59375 217.964844 C 53.429688 210.300781 57.253906 206.390625 61.996094 201.34375 C 66.007812 197.113281 66.199219 196.863281 68.09375 194.90625 C 76.753906 185.886719 79.027344 184.8125 80.195312 184.339844 C 82.558594 183.332031 85.023438 182.878906 87.589844 182.984375 C 98.273438 183.394531 108.984375 183.171875 119.699219 183.109375 C 120.605469 183.148438 121.515625 183.140625 122.421875 183.082031 C 123.328125 183.027344 124.230469 182.925781 125.128906 182.777344 C 126.023438 182.628906 126.910156 182.433594 127.789062 182.191406 C 128.664062 181.953125 129.527344 181.667969 130.375 181.335938 C 131.222656 181.007812 132.046875 180.632812 132.855469 180.21875 C 133.664062 179.800781 134.449219 179.34375 135.210938 178.847656 C 135.96875 178.351562 136.703125 177.816406 137.410156 177.242188 C 138.113281 176.667969 138.785156 176.0625 139.429688 175.417969 C 140.070312 174.777344 140.675781 174.101562 141.25 173.394531 C 141.820312 172.691406 142.355469 171.957031 142.847656 171.195312 C 143.34375 170.433594 143.800781 169.648438 144.214844 168.839844 C 144.625 168.035156 144.996094 167.207031 145.324219 166.359375 C 145.652344 165.511719 145.9375 164.652344 146.175781 163.777344 C 146.414062 162.898438 146.605469 162.015625 146.75 161.117188 C 146.898438 160.222656 146.996094 159.320312 147.046875 158.414062 C 147.101562 157.507812 147.105469 156.601562 147.0625 155.695312 C 147.160156 146.105469 147.09375 136.484375 147.09375 126.894531 L 147.09375 111.5625 L 147.191406 108.347656 C 149.734375 108.246094 152.179688 108.699219 154.519531 109.703125 C 155.660156 110.175781 157.933594 111.214844 166.59375 120.269531 C 168.488281 122.226562 168.710938 122.476562 172.691406 126.707031 C 177.464844 131.753906 181.285156 135.664062 189.125 143.328125 C 191.589844 145.757812 194.78125 148.851562 198.539062 152.382812 C 198.730469 144.65625 198.921875 136.9375 199.109375 129.230469 L 199.109375 108.472656 L 206.441406 108.472656 C 211.082031 108.4375 215.496094 107.417969 219.679688 105.414062 C 221.824219 104.582031 223.800781 103.46875 225.621094 102.066406 C 227.4375 100.667969 229.019531 99.039062 230.363281 97.179688 C 232.253906 94.320312 233.394531 91.183594 233.773438 87.777344 L 233.773438 22.574219 C 233.421875 21.234375 232.980469 19.925781 232.445312 18.644531 C 231.910156 17.367188 231.289062 16.132812 230.585938 14.9375 C 229.878906 13.746094 229.09375 12.609375 228.230469 11.523438 C 227.367188 10.4375 226.433594 9.417969 225.425781 8.464844 C 224.421875 7.507812 223.355469 6.628906 222.226562 5.820312 C 221.101562 5.011719 219.921875 4.285156 218.695312 3.640625 C 217.464844 2.996094 216.199219 2.441406 214.890625 1.972656 C 213.585938 1.5 212.253906 1.125 210.898438 0.839844 Z M 138.34375 155.695312 C 138.386719 156.320312 138.398438 156.941406 138.375 157.566406 C 138.351562 158.191406 138.296875 158.8125 138.207031 159.429688 C 138.117188 160.046875 137.996094 160.660156 137.839844 161.265625 C 137.683594 161.871094 137.496094 162.464844 137.277344 163.050781 C 137.058594 163.636719 136.8125 164.207031 136.53125 164.765625 C 136.25 165.324219 135.941406 165.867188 135.605469 166.390625 C 135.265625 166.917969 134.902344 167.425781 134.507812 167.910156 C 134.117188 168.398438 133.699219 168.863281 133.257812 169.304688 C 132.816406 169.746094 132.351562 170.164062 131.863281 170.554688 C 131.378906 170.949219 130.871094 171.3125 130.34375 171.652344 C 129.820312 171.988281 129.277344 172.300781 128.71875 172.578125 C 128.160156 172.859375 127.585938 173.109375 127 173.328125 C 126.414062 173.546875 125.820312 173.734375 125.210938 173.890625 C 124.605469 174.046875 123.992188 174.171875 123.375 174.261719 C 122.757812 174.351562 122.132812 174.40625 121.507812 174.429688 C 120.882812 174.453125 120.257812 174.445312 119.632812 174.402344 C 107.277344 174.496094 94.953125 174.558594 82.597656 174.339844 C 81.703125 174.292969 80.816406 174.34375 79.933594 174.496094 C 79.054688 174.648438 78.199219 174.894531 77.371094 175.238281 C 76.546875 175.585938 75.769531 176.015625 75.039062 176.535156 C 74.3125 177.054688 73.648438 177.644531 73.054688 178.3125 C 68.503906 182.984375 63.449219 187.179688 59.277344 192.195312 C 54.566406 197.847656 49.382812 203.03125 43.730469 207.746094 C 43.824219 205.285156 44.171875 193.675781 44.332031 180.996094 C 44.433594 180.035156 44.34375 179.097656 44.058594 178.175781 C 43.773438 177.253906 43.316406 176.429688 42.6875 175.695312 C 42.003906 175.167969 41.25 174.792969 40.414062 174.566406 C 39.582031 174.34375 38.738281 174.289062 37.882812 174.402344 C 34.628906 174.527344 31.34375 174.464844 28.085938 174.402344 C 27.472656 174.425781 26.859375 174.421875 26.25 174.382812 C 25.636719 174.34375 25.027344 174.273438 24.421875 174.171875 C 23.816406 174.066406 23.214844 173.933594 22.625 173.769531 C 22.035156 173.605469 21.453125 173.410156 20.878906 173.1875 C 20.308594 172.960938 19.75 172.707031 19.207031 172.425781 C 18.660156 172.144531 18.132812 171.832031 17.621094 171.496094 C 17.109375 171.15625 16.613281 170.792969 16.140625 170.40625 C 15.664062 170.015625 15.210938 169.605469 14.78125 169.167969 C 14.347656 168.730469 13.941406 168.273438 13.558594 167.796875 C 13.171875 167.316406 12.816406 166.820312 12.484375 166.304688 C 12.152344 165.789062 11.847656 165.257812 11.570312 164.710938 C 11.292969 164.164062 11.046875 163.605469 10.828125 163.03125 C 10.609375 162.457031 10.421875 161.875 10.265625 161.28125 C 10.105469 160.691406 9.980469 160.089844 9.886719 159.484375 C 9.789062 158.878906 9.726562 158.269531 9.695312 157.660156 C 9.664062 157.046875 9.664062 156.433594 9.695312 155.820312 C 9.601562 138.28125 9.601562 120.722656 9.695312 103.140625 C 9.660156 102.527344 9.65625 101.914062 9.683594 101.300781 C 9.710938 100.6875 9.769531 100.078125 9.859375 99.46875 C 9.953125 98.863281 10.074219 98.261719 10.226562 97.667969 C 10.382812 97.074219 10.566406 96.488281 10.78125 95.914062 C 10.996094 95.335938 11.238281 94.773438 11.511719 94.226562 C 11.785156 93.675781 12.089844 93.140625 12.417969 92.621094 C 12.746094 92.101562 13.101562 91.601562 13.484375 91.121094 C 13.863281 90.640625 14.269531 90.179688 14.699219 89.738281 C 15.128906 89.296875 15.578125 88.882812 16.050781 88.488281 C 16.523438 88.097656 17.015625 87.730469 17.527344 87.386719 C 18.039062 87.046875 18.566406 86.730469 19.109375 86.445312 C 19.652344 86.15625 20.210938 85.898438 20.78125 85.671875 C 21.351562 85.441406 21.933594 85.242188 22.527344 85.074219 C 23.117188 84.90625 23.714844 84.769531 24.320312 84.660156 C 24.925781 84.554688 25.535156 84.480469 26.152344 84.4375 C 26.765625 84.394531 27.378906 84.382812 27.992188 84.402344 C 47.933594 84.308594 67.871094 84.277344 87.8125 84.308594 C 87.890625 85.40625 88.035156 86.496094 88.253906 87.574219 C 88.46875 88.652344 88.753906 89.714844 89.105469 90.753906 C 89.460938 91.796875 89.875 92.8125 90.359375 93.804688 C 90.839844 94.792969 91.386719 95.746094 91.988281 96.667969 C 92.59375 97.585938 93.253906 98.464844 93.972656 99.300781 C 94.691406 100.136719 95.457031 100.921875 96.277344 101.660156 C 97.09375 102.398438 97.953125 103.082031 98.859375 103.710938 C 99.765625 104.335938 100.707031 104.90625 101.683594 105.414062 C 105.878906 107.484375 110.3125 108.503906 114.988281 108.472656 C 118.527344 108.503906 122.066406 108.535156 125.605469 108.535156 C 129.839844 108.597656 134.105469 108.597656 138.34375 108.535156 C 138.4375 124.246094 138.4375 139.964844 138.34375 155.695312 Z M 225.023438 81.183594 C 225.054688 81.796875 225.054688 82.410156 225.019531 83.023438 C 224.988281 83.636719 224.925781 84.246094 224.828125 84.851562 C 224.734375 85.457031 224.605469 86.054688 224.449219 86.648438 C 224.289062 87.242188 224.101562 87.824219 223.882812 88.398438 C 223.664062 88.972656 223.414062 89.53125 223.136719 90.078125 C 222.859375 90.625 222.554688 91.15625 222.222656 91.671875 C 221.886719 92.1875 221.53125 92.6875 221.144531 93.164062 C 220.761719 93.644531 220.351562 94.101562 219.917969 94.535156 C 219.488281 94.972656 219.035156 95.382812 218.558594 95.773438 C 218.082031 96.160156 217.589844 96.523438 217.074219 96.863281 C 216.5625 97.199219 216.035156 97.511719 215.488281 97.792969 C 214.941406 98.074219 214.382812 98.328125 213.8125 98.554688 C 213.238281 98.777344 212.65625 98.972656 212.066406 99.136719 C 211.472656 99.300781 210.875 99.433594 210.269531 99.535156 C 209.664062 99.636719 209.054688 99.707031 208.441406 99.746094 C 207.828125 99.785156 207.210938 99.789062 206.597656 99.765625 C 203.34375 99.828125 200.058594 99.890625 196.804688 99.765625 C 195.953125 99.644531 195.113281 99.695312 194.28125 99.917969 C 193.453125 100.144531 192.703125 100.523438 192.03125 101.058594 C 191.398438 101.789062 190.9375 102.617188 190.648438 103.535156 C 190.355469 104.457031 190.257812 105.398438 190.355469 106.359375 C 190.515625 119.039062 190.894531 130.617188 190.957031 133.109375 C 185.3125 128.386719 180.128906 123.203125 175.410156 117.558594 C 171.269531 112.542969 166.183594 108.347656 161.664062 103.675781 C 161.066406 103.007812 160.402344 102.414062 159.671875 101.894531 C 158.9375 101.375 158.160156 100.941406 157.332031 100.597656 C 156.5 100.253906 155.644531 100.007812 154.757812 99.855469 C 153.875 99.703125 152.984375 99.652344 152.089844 99.703125 C 150.414062 99.734375 148.738281 99.765625 147.0625 99.765625 C 144.0625 99.796875 141.089844 99.828125 138.089844 99.828125 C 130.410156 99.859375 122.730469 99.796875 115.050781 99.765625 C 104.75 99.671875 97.863281 93.867188 96.597656 84.308594 C 96.429688 83.230469 96.347656 82.148438 96.34375 81.058594 L 96.34375 75.476562 C 96.28125 59.765625 96.25 44.054688 96.34375 28.347656 C 96.304688 27.734375 96.300781 27.121094 96.324219 26.507812 C 96.351562 25.894531 96.410156 25.28125 96.5 24.675781 C 96.589844 24.066406 96.714844 23.464844 96.867188 22.871094 C 97.019531 22.277344 97.207031 21.691406 97.421875 21.117188 C 97.636719 20.542969 97.882812 19.980469 98.15625 19.429688 C 98.429688 18.878906 98.734375 18.347656 99.066406 17.828125 C 99.394531 17.3125 99.753906 16.8125 100.136719 16.332031 C 100.519531 15.851562 100.929688 15.394531 101.359375 14.957031 C 101.792969 14.519531 102.246094 14.105469 102.722656 13.714844 C 103.199219 13.328125 103.691406 12.964844 104.207031 12.625 C 104.722656 12.289062 105.25 11.976562 105.796875 11.695312 C 106.34375 11.414062 106.90625 11.164062 107.476562 10.9375 C 108.050781 10.714844 108.632812 10.523438 109.226562 10.363281 C 109.820312 10.199219 110.421875 10.070312 111.027344 9.972656 C 111.636719 9.875 112.246094 9.808594 112.863281 9.773438 C 113.476562 9.738281 114.089844 9.738281 114.703125 9.765625 C 145.355469 9.609375 176.03125 9.609375 206.726562 9.765625 C 207.339844 9.746094 207.953125 9.757812 208.566406 9.800781 C 209.179688 9.84375 209.792969 9.917969 210.398438 10.023438 C 211.003906 10.132812 211.601562 10.269531 212.191406 10.4375 C 212.785156 10.605469 213.367188 10.804688 213.9375 11.035156 C 214.507812 11.261719 215.0625 11.519531 215.609375 11.808594 C 216.152344 12.09375 216.679688 12.410156 217.191406 12.75 C 217.703125 13.09375 218.191406 13.460938 218.664062 13.851562 C 219.136719 14.246094 219.589844 14.664062 220.019531 15.101562 C 220.449219 15.542969 220.855469 16.003906 221.234375 16.484375 C 221.617188 16.964844 221.972656 17.464844 222.300781 17.984375 C 222.628906 18.503906 222.929688 19.039062 223.203125 19.589844 C 223.476562 20.136719 223.722656 20.699219 223.9375 21.277344 C 224.152344 21.851562 224.335938 22.4375 224.488281 23.03125 C 224.644531 23.625 224.765625 24.226562 224.855469 24.832031 C 224.949219 25.441406 225.007812 26.050781 225.035156 26.664062 C 225.0625 27.277344 225.058594 27.890625 225.023438 28.503906 C 225.117188 46.074219 225.117188 63.636719 225.023438 81.183594 Z M 206.121094 43.398438 L 116.574219 43.398438 C 116.261719 43.398438 115.953125 43.367188 115.648438 43.304688 C 115.34375 43.246094 115.046875 43.15625 114.757812 43.035156 C 114.472656 42.917969 114.199219 42.773438 113.9375 42.601562 C 113.679688 42.425781 113.441406 42.230469 113.21875 42.011719 C 113 41.792969 112.804688 41.550781 112.632812 41.292969 C 112.457031 41.035156 112.3125 40.761719 112.191406 40.476562 C 112.074219 40.1875 111.984375 39.894531 111.921875 39.589844 C 111.863281 39.285156 111.832031 38.976562 111.832031 38.664062 C 111.832031 38.355469 111.863281 38.046875 111.921875 37.742188 C 111.984375 37.4375 112.074219 37.140625 112.191406 36.855469 C 112.3125 36.566406 112.457031 36.292969 112.632812 36.035156 C 112.804688 35.777344 113 35.539062 113.21875 35.320312 C 113.441406 35.101562 113.679688 34.902344 113.9375 34.730469 C 114.199219 34.558594 114.472656 34.414062 114.757812 34.292969 C 115.046875 34.175781 115.34375 34.085938 115.648438 34.023438 C 115.953125 33.964844 116.261719 33.933594 116.574219 33.933594 L 206.121094 33.933594 C 206.433594 33.933594 206.742188 33.964844 207.046875 34.023438 C 207.351562 34.085938 207.648438 34.175781 207.9375 34.292969 C 208.222656 34.414062 208.496094 34.558594 208.753906 34.730469 C 209.015625 34.902344 209.253906 35.101562 209.472656 35.320312 C 209.695312 35.539062 209.890625 35.777344 210.0625 36.035156 C 210.234375 36.292969 210.382812 36.566406 210.5 36.855469 C 210.621094 37.140625 210.710938 37.4375 210.769531 37.742188 C 210.832031 38.046875 210.863281 38.355469 210.863281 38.664062 C 210.863281 38.976562 210.832031 39.285156 210.769531 39.589844 C 210.710938 39.894531 210.621094 40.1875 210.5 40.476562 C 210.382812 40.761719 210.234375 41.035156 210.0625 41.292969 C 209.890625 41.550781 209.695312 41.792969 209.472656 42.011719 C 209.253906 42.230469 209.015625 42.425781 208.753906 42.601562 C 208.496094 42.773438 208.222656 42.917969 207.9375 43.035156 C 207.648438 43.15625 207.351562 43.246094 207.046875 43.304688 C 206.742188 43.367188 206.433594 43.398438 206.121094 43.398438 Z M 174.140625 68.480469 L 119.316406 68.480469 C 119.003906 68.480469 118.695312 68.453125 118.390625 68.390625 C 118.085938 68.332031 117.789062 68.242188 117.5 68.121094 C 117.214844 68.003906 116.941406 67.855469 116.683594 67.683594 C 116.421875 67.511719 116.183594 67.316406 115.964844 67.097656 C 115.742188 66.875 115.546875 66.636719 115.375 66.378906 C 115.199219 66.121094 115.054688 65.847656 114.9375 65.5625 C 114.816406 65.273438 114.726562 64.976562 114.667969 64.671875 C 114.605469 64.367188 114.574219 64.0625 114.574219 63.75 C 114.574219 63.441406 114.605469 63.132812 114.667969 62.828125 C 114.726562 62.523438 114.816406 62.226562 114.9375 61.941406 C 115.054688 61.652344 115.199219 61.378906 115.375 61.121094 C 115.546875 60.863281 115.742188 60.625 115.964844 60.40625 C 116.183594 60.183594 116.421875 59.988281 116.683594 59.816406 C 116.941406 59.644531 117.214844 59.496094 117.5 59.378906 C 117.789062 59.261719 118.085938 59.171875 118.390625 59.109375 C 118.695312 59.046875 119.003906 59.019531 119.316406 59.019531 L 174.140625 59.019531 C 174.449219 59.019531 174.757812 59.046875 175.0625 59.109375 C 175.367188 59.171875 175.664062 59.261719 175.953125 59.378906 C 176.242188 59.496094 176.511719 59.644531 176.773438 59.816406 C 177.03125 59.988281 177.269531 60.183594 177.492188 60.40625 C 177.710938 60.625 177.90625 60.863281 178.082031 61.121094 C 178.253906 61.378906 178.398438 61.652344 178.519531 61.941406 C 178.636719 62.226562 178.726562 62.523438 178.789062 62.828125 C 178.847656 63.132812 178.878906 63.441406 178.878906 63.75 C 178.878906 64.0625 178.847656 64.367188 178.789062 64.671875 C 178.726562 64.976562 178.636719 65.273438 178.519531 65.5625 C 178.398438 65.847656 178.253906 66.121094 178.082031 66.378906 C 177.90625 66.636719 177.710938 66.875 177.492188 67.097656 C 177.269531 67.316406 177.03125 67.511719 176.773438 67.683594 C 176.511719 67.855469 176.242188 68.003906 175.953125 68.121094 C 175.664062 68.242188 175.367188 68.332031 175.0625 68.390625 C 174.757812 68.453125 174.449219 68.480469 174.140625 68.480469 Z M 118.128906 146.429688 L 28.578125 146.429688 C 28.265625 146.429688 27.957031 146.398438 27.652344 146.335938 C 27.347656 146.277344 27.050781 146.1875 26.765625 146.066406 C 26.476562 145.949219 26.203125 145.804688 25.945312 145.628906 C 25.683594 145.457031 25.445312 145.261719 25.226562 145.042969 C 25.003906 144.820312 24.808594 144.582031 24.636719 144.324219 C 24.464844 144.066406 24.316406 143.792969 24.199219 143.507812 C 24.078125 143.21875 23.988281 142.925781 23.929688 142.617188 C 23.867188 142.3125 23.835938 142.007812 23.835938 141.695312 C 23.835938 141.386719 23.867188 141.078125 23.929688 140.773438 C 23.988281 140.46875 24.078125 140.171875 24.199219 139.886719 C 24.316406 139.597656 24.464844 139.324219 24.636719 139.066406 C 24.808594 138.808594 25.003906 138.570312 25.226562 138.351562 C 25.445312 138.128906 25.683594 137.933594 25.945312 137.761719 C 26.203125 137.589844 26.476562 137.441406 26.765625 137.324219 C 27.050781 137.207031 27.347656 137.117188 27.652344 137.054688 C 27.957031 136.996094 28.265625 136.964844 28.578125 136.964844 L 118.128906 136.964844 C 118.4375 136.964844 118.746094 136.996094 119.050781 137.054688 C 119.355469 137.117188 119.652344 137.207031 119.941406 137.324219 C 120.230469 137.441406 120.5 137.589844 120.761719 137.761719 C 121.019531 137.933594 121.257812 138.128906 121.480469 138.351562 C 121.699219 138.570312 121.894531 138.808594 122.066406 139.066406 C 122.242188 139.324219 122.386719 139.597656 122.507812 139.886719 C 122.625 140.171875 122.714844 140.46875 122.777344 140.773438 C 122.835938 141.078125 122.867188 141.386719 122.867188 141.695312 C 122.867188 142.007812 122.835938 142.3125 122.777344 142.617188 C 122.714844 142.925781 122.625 143.21875 122.507812 143.507812 C 122.386719 143.792969 122.242188 144.066406 122.066406 144.324219 C 121.894531 144.582031 121.699219 144.820312 121.480469 145.042969 C 121.257812 145.261719 121.019531 145.457031 120.761719 145.628906 C 120.5 145.804688 120.230469 145.949219 119.941406 146.066406 C 119.652344 146.1875 119.355469 146.277344 119.050781 146.335938 C 118.746094 146.398438 118.4375 146.429688 118.128906 146.429688 Z M 28.960938 111.5625 L 83.785156 111.5625 C 84.09375 111.5625 84.402344 111.59375 84.707031 111.65625 C 85.011719 111.714844 85.308594 111.804688 85.597656 111.925781 C 85.886719 112.042969 86.160156 112.1875 86.417969 112.359375 C 86.675781 112.535156 86.914062 112.730469 87.136719 112.949219 C 87.355469 113.167969 87.550781 113.410156 87.726562 113.667969 C 87.898438 113.925781 88.042969 114.199219 88.164062 114.484375 C 88.28125 114.773438 88.371094 115.066406 88.433594 115.371094 C 88.492188 115.675781 88.523438 115.984375 88.523438 116.296875 C 88.523438 116.605469 88.492188 116.914062 88.433594 117.21875 C 88.371094 117.523438 88.28125 117.820312 88.164062 118.105469 C 88.042969 118.394531 87.898438 118.667969 87.726562 118.925781 C 87.550781 119.183594 87.355469 119.421875 87.136719 119.640625 C 86.914062 119.859375 86.675781 120.058594 86.417969 120.230469 C 86.160156 120.402344 85.886719 120.546875 85.597656 120.667969 C 85.308594 120.785156 85.011719 120.875 84.707031 120.9375 C 84.402344 120.996094 84.09375 121.027344 83.785156 121.027344 L 28.960938 121.027344 C 28.648438 121.027344 28.339844 120.996094 28.035156 120.9375 C 27.730469 120.875 27.433594 120.785156 27.144531 120.667969 C 26.859375 120.546875 26.585938 120.402344 26.328125 120.230469 C 26.066406 120.058594 25.828125 119.859375 25.609375 119.640625 C 25.386719 119.421875 25.191406 119.183594 25.019531 118.925781 C 24.847656 118.667969 24.699219 118.394531 24.582031 118.105469 C 24.460938 117.820312 24.371094 117.523438 24.3125 117.21875 C 24.25 116.914062 24.21875 116.605469 24.21875 116.296875 C 24.21875 115.984375 24.25 115.675781 24.3125 115.371094 C 24.371094 115.066406 24.460938 114.773438 24.582031 114.484375 C 24.699219 114.199219 24.847656 113.925781 25.019531 113.667969 C 25.191406 113.410156 25.386719 113.167969 25.609375 112.949219 C 25.828125 112.730469 26.066406 112.535156 26.328125 112.359375 C 26.585938 112.1875 26.859375 112.042969 27.144531 111.925781 C 27.433594 111.804688 27.730469 111.714844 28.035156 111.65625 C 28.339844 111.59375 28.648438 111.5625 28.960938 111.5625 Z M 28.960938 111.5625 " fill-opacity="1" fill-rule="nonzero"/></g></g></g></g><g mask="url(#56c739abe3)"><g transform="matrix(1, 0, 0, 1, 209, 192)"><g clip-path="url(#e5e52bc6a3)"><g clip-path="url(#031e5213fa)"><path fill="#ffffff" d="M 118.714844 117.566406 L 118.714844 66.398438 C 118.714844 53.175781 128.953125 42.449219 141.585938 42.449219 L 191.625 42.449219 L 191.625 30.253906 C 191.625 13.890625 178.945312 0.625 163.324219 0.625 L 32.097656 0.625 C 16.472656 0.625 3.796875 13.890625 3.796875 30.253906 L 3.796875 93.5625 C 3.796875 109.921875 16.472656 123.191406 32.097656 123.191406 L 53.75 123.191406 L 53.75 158.175781 C 53.75 160.105469 56.402344 161.464844 57.777344 159.84375 C 68.097656 147.628906 78.40625 135.414062 88.726562 123.195312 L 119.375 123.195312 C 118.953125 121.382812 118.714844 119.507812 118.714844 117.566406 Z M 118.714844 117.566406 " fill-opacity="1" fill-rule="nonzero"/></g><g clip-path="url(#4cf6dba294)"><path fill="#ffffff" d="M 131.699219 74.835938 L 131.699219 131.953125 C 131.699219 143.878906 140.933594 153.550781 152.332031 153.550781 L 206.714844 153.550781 C 214.242188 162.457031 221.757812 171.363281 229.277344 180.269531 C 230.28125 181.457031 232.210938 180.460938 232.210938 179.058594 L 232.210938 153.550781 L 266.265625 153.550781 C 277.660156 153.550781 286.898438 143.878906 286.898438 131.953125 L 286.898438 74.835938 C 286.898438 62.910156 277.660156 53.230469 266.265625 53.230469 L 152.332031 53.230469 C 140.933594 53.230469 131.699219 62.90625 131.699219 74.835938 Z M 131.699219 74.835938 " fill-opacity="1" fill-rule="nonzero"/></g></g></g></g></svg>